<svg width="512" height="512" viewBox="0 0 512 512" fill="none" xmlns="http://www.w3.org/2000/svg">
<path d="M264 164H256V180H264V172V164ZM277 180C281.418 180 285 176.418 285 172C285 167.582 281.418 164 277 164V172V180ZM264 172V180H277V172V164H264V172Z" fill="#A7A7A7"/>
<path d="M248 180H256V196H248V188V180ZM235 196C230.582 196 227 192.418 227 188C227 183.582 230.582 180 235 180V188V196ZM248 188V196H235V188V180H248V188Z" fill="#A7A7A7"/>
<path d="M264 196H256V212H264V204V196ZM277 212C281.418 212 285 208.418 285 204C285 199.582 281.418 196 277 196V204V212ZM264 204V212H277V204V196H264V204Z" fill="#A7A7A7"/>
<path d="M248 212H256V228H248V220V212ZM235 228C230.582 228 227 224.418 227 220C227 215.582 230.582 212 235 212V220V228ZM248 220V228H235V220V212H248V220Z" fill="#A7A7A7"/>
<path d="M264 228H256V244H264V236V228ZM277 244C281.418 244 285 240.418 285 236C285 231.582 281.418 228 277 228V236V244ZM264 236V244H277V236V228H264V236Z" fill="#A7A7A7"/>
<path d="M248 244H256V260H248V252V244ZM235 260C230.582 260 227 256.418 227 252C227 247.582 230.582 244 235 244V252V260ZM248 252V260H235V252V244H248V252Z" fill="#A7A7A7"/>
<path d="M256 48.5C267.526 48.5 277.068 57.4562 277.798 68.959L281.291 124.054C282.217 138.651 270.627 151 256 151C241.373 151 229.783 138.651 230.709 124.054L234.203 68.959C234.933 57.4563 244.474 48.5 256 48.5ZM256 111C248.268 111 242 117.268 242 125C242 132.732 248.268 139 256 139C263.732 139 270 132.732 270 125C270 117.268 263.732 111 256 111Z" fill="#A7A7A7"/>
</svg>
