<svg xmlns="http://www.w3.org/2000/svg" enable-background="new 0 0 1024 1024" width="22px" height="22px" viewBox="0 0 1024 1024"><path d="M511.9,745.5c-0.7,15.9-6.1,30.9-17.6,42.4c-20.9,20.9-41.7,41.7-62.6,62.6c-33.2,33.2-66.4,66.4-99.6,99.6
	c-7.6,7.6-15.1,15.1-22.7,22.7c-5.1,5.1-11,9.1-17.3,11.9c-22.1,9.9-49.7,6-67.6-11.9L39.6,787.9C28.7,777,22,760.9,22,745.5
	c0-14.7,6.5-32.3,17.6-42.4C51,692.6,66,684.8,82,685.5c16,0.8,31.1,6.2,42.6,17.6l62.6,62.6c6.6,6.6,13.1,13.1,19.7,19.7V128.3
	c0-10.9-0.1-21.8,0-32.6v-1.4c0-15.4,6.7-31.5,17.6-42.4c10.4-10.4,27.5-18.2,42.4-17.6c15.5,0.7,31.6,5.8,42.4,17.6
	c10.8,11.7,17.6,26.2,17.6,42.4v691.4c20-20,39.9-39.9,59.9-59.9c7.6-7.6,15.1-15.1,22.7-22.7c10.9-10.9,27-17.6,42.4-17.6
	c14.7,0,32.3,6.5,42.4,17.6C504.8,714.5,512.6,729.5,511.9,745.5z"/><path d="M454.3 471.7c-16.2 0-30.7 6.8-42.4 17.6-11.8 10.8-16.9 26.9-17.6 42.4-.6 14.9 7.2 32 17.6 42.4 10.9 10.9 27 17.6 42.4 17.6.3 0 .5 0 .8 0 19.7.2 39.5 0 59.2 0 40.5 0 80.9 0 121.4 0 47 0 94 0 141 0 38.9 0 77.7 0 116.6 0 16.1 0 32.3 0 48.5 0s30.7-6.8 42.4-17.6c11.8-10.8 16.9-26.9 17.6-42.4.6-14.9-7.2-32-17.6-42.4-10.9-10.9-27-17.6-42.4-17.6-.3 0-.5 0-.8 0-19.7-.2-39.5 0-59.2 0-40.5 0-80.9 0-121.4 0-47 0-94 0-141 0-38.9 0-77.7 0-116.6 0C486.7 471.7 470.5 471.7 454.3 471.7L454.3 471.7zM787.7 415.3c16.3 0 30.7-6.8 42.4-17.6 11.8-10.8 16.9-26.9 17.6-42.4.6-14.9-7.2-32-17.6-42.4-10.9-10.9-27-17.6-42.4-17.6-13.8 0-27.5 0-41.2 0-59.7 0-119.4 0-179.1 0-37.7 0-75.4 0-113.1 0-16.2 0-30.7 6.8-42.4 17.6-11.8 10.8-16.9 26.9-17.6 42.4-.6 14.9 7.2 32 17.6 42.4 10.9 10.9 27 17.6 42.4 17.6 13.8 0 27.5 0 41.2 0 59.7 0 119.4 0 179.1 0C712.3 415.3 750 415.3 787.7 415.3L787.7 415.3zM633.5 239c16.3 0 30.7-6.8 42.4-17.6 11.8-10.8 16.9-26.9 17.6-42.4.6-14.9-7.2-32-17.6-42.4-10.9-10.9-27-17.6-42.4-17.6-7.4 0-14.7 0-22.1 0-32.1 0-64.3 0-96.5 0-20.2 0-40.4 0-60.6 0-16.2 0-30.7 6.8-42.4 17.6-11.8 10.8-16.9 26.9-17.6 42.4-.6 14.9 7.2 32 17.6 42.4 10.9 10.9 27 17.6 42.4 17.6 7.4 0 14.7 0 22.1 0 32.1 0 64.3 0 96.5 0C593.1 239 613.3 239 633.5 239L633.5 239z"/></svg>