<?xml version="1.0" encoding="UTF-8"?>
<!--Generator: Apple Native CoreSVG 341-->
<!DOCTYPE svg
PUBLIC "-//W3C//DTD SVG 1.1//EN"
       "http://www.w3.org/Graphics/SVG/1.1/DTD/svg11.dtd">
<svg version="1.1" xmlns="http://www.w3.org/2000/svg" xmlns:xlink="http://www.w3.org/1999/xlink" viewBox="0 0 3300 2200">
 <!--glyph: "", point size: 100.0, font version: "21.1d1e1", template writer version: "138.0.0"-->
 <style>.defaults {-sfsymbols-variable-value-mode:color;-sfsymbols-draw-reverses-motion-groups:true}

.monochrome-0 {-sfsymbols-motion-group:1;-sfsymbols-layer-tags:-51bc1be0668d39e7 _enclosure.stroke capsule}
.monochrome-1 {-sfsymbols-motion-group:0;-sfsymbols-always-pulses:true;-sfsymbols-layer-tags:-29503e4eee9359ce -51bc1be0668d39e7 arrow.left.and.right}

.multicolor-0:tintColor {-sfsymbols-motion-group:1;-sfsymbols-layer-tags:-51bc1be0668d39e7 _enclosure.stroke capsule}
.multicolor-1:tintColor {-sfsymbols-motion-group:0;-sfsymbols-always-pulses:true;-sfsymbols-layer-tags:-29503e4eee9359ce -51bc1be0668d39e7 arrow.left.and.right}

.hierarchical-0:secondary {-sfsymbols-motion-group:1;-sfsymbols-layer-tags:-51bc1be0668d39e7 _enclosure.stroke capsule}
.hierarchical-1:primary {-sfsymbols-motion-group:0;-sfsymbols-always-pulses:true;-sfsymbols-layer-tags:-29503e4eee9359ce -51bc1be0668d39e7 arrow.left.and.right}

.SFSymbolsPreviewWireframe {fill:none;opacity:1.0;stroke:black;stroke-width:0.5}
</style>
 <g id="Notes">
  <rect height="2200" id="artboard" style="fill:white;opacity:1" width="3300" x="0" y="0"/>
  <line style="fill:none;stroke:black;opacity:1;stroke-width:0.5;" x1="263" x2="3036" y1="292" y2="292"/>
  <text style="stroke:none;fill:black;font-family:sans-serif;font-size:13;font-weight:bold;" transform="matrix(1 0 0 1 263 322)">Weight/Scale Variations</text>
  <text style="stroke:none;fill:black;font-family:sans-serif;font-size:13;text-anchor:middle;" transform="matrix(1 0 0 1 559.711 322)">Ultralight</text>
  <text style="stroke:none;fill:black;font-family:sans-serif;font-size:13;text-anchor:middle;" transform="matrix(1 0 0 1 856.422 322)">Thin</text>
  <text style="stroke:none;fill:black;font-family:sans-serif;font-size:13;text-anchor:middle;" transform="matrix(1 0 0 1 1153.13 322)">Light</text>
  <text style="stroke:none;fill:black;font-family:sans-serif;font-size:13;text-anchor:middle;" transform="matrix(1 0 0 1 1449.84 322)">Regular</text>
  <text style="stroke:none;fill:black;font-family:sans-serif;font-size:13;text-anchor:middle;" transform="matrix(1 0 0 1 1746.56 322)">Medium</text>
  <text style="stroke:none;fill:black;font-family:sans-serif;font-size:13;text-anchor:middle;" transform="matrix(1 0 0 1 2043.27 322)">Semibold</text>
  <text style="stroke:none;fill:black;font-family:sans-serif;font-size:13;text-anchor:middle;" transform="matrix(1 0 0 1 2339.98 322)">Bold</text>
  <text style="stroke:none;fill:black;font-family:sans-serif;font-size:13;text-anchor:middle;" transform="matrix(1 0 0 1 2636.69 322)">Heavy</text>
  <text style="stroke:none;fill:black;font-family:sans-serif;font-size:13;text-anchor:middle;" transform="matrix(1 0 0 1 2933.4 322)">Black</text>
  <line style="fill:none;stroke:black;opacity:1;stroke-width:0.5;" x1="263" x2="3036" y1="1903" y2="1903"/>
  <g transform="matrix(0.2 0 0 0.2 263 1933)">
   <path d="m46.2402 4.15039c21.7773 0 39.4531-17.627 39.4531-39.4043s-17.6758-39.4043-39.4531-39.4043c-21.7285 0-39.4043 17.627-39.4043 39.4043s17.6758 39.4043 39.4043 39.4043Zm0-7.42188c-17.6758 0-31.9336-14.3066-31.9336-31.9824s14.2578-31.9824 31.9336-31.9824 31.9824 14.3066 31.9824 31.9824-14.3066 31.9824-31.9824 31.9824Zm3.61328-17.7734v-28.4668c0-2.24609-1.46484-3.75977-3.71094-3.75977-2.14844 0-3.61328 1.51367-3.61328 3.75977v28.4668c0 2.19727 1.46484 3.71094 3.61328 3.71094 2.24609 0 3.71094-1.51367 3.71094-3.71094Zm-17.8223-10.5957h28.418c2.19727 0 3.71094-1.46484 3.71094-3.61328 0-2.19727-1.51367-3.71094-3.71094-3.71094h-28.418c-2.24609 0-3.75977 1.51367-3.75977 3.71094 0 2.14844 1.51367 3.61328 3.75977 3.61328Z"/>
  </g>
  <g transform="matrix(0.2 0 0 0.2 281.506 1933)">
   <path d="m58.5449 14.5508c27.4902 0 49.8047-22.3145 49.8047-49.8047s-22.3145-49.8047-49.8047-49.8047-49.8047 22.3145-49.8047 49.8047 22.3145 49.8047 49.8047 49.8047Zm0-8.30078c-22.9492 0-41.5039-18.5547-41.5039-41.5039s18.5547-41.5039 41.5039-41.5039 41.5039 18.5547 41.5039 41.5039-18.5547 41.5039-41.5039 41.5039Zm4.05273-23.0957v-36.9141c0-2.49023-1.70898-4.19922-4.15039-4.19922-2.39258 0-4.05273 1.70898-4.05273 4.19922v36.9141c0 2.44141 1.66016 4.15039 4.05273 4.15039 2.44141 0 4.15039-1.66016 4.15039-4.15039Zm-22.5586-14.4043h36.9629c2.44141 0 4.15039-1.61133 4.15039-4.00391 0-2.44141-1.70898-4.15039-4.15039-4.15039h-36.9629c-2.49023 0-4.15039 1.70898-4.15039 4.15039 0 2.39258 1.66016 4.00391 4.15039 4.00391Z"/>
  </g>
  <g transform="matrix(0.2 0 0 0.2 304.924 1933)">
   <path d="m74.8535 28.3203c35.1074 0 63.623-28.4668 63.623-63.5742s-28.5156-63.623-63.623-63.623-63.5742 28.5156-63.5742 63.623 28.4668 63.5742 63.5742 63.5742Zm0-9.08203c-30.127 0-54.4922-24.3652-54.4922-54.4922s24.3652-54.4922 54.4922-54.4922 54.4922 24.3652 54.4922 54.4922-24.3652 54.4922-54.4922 54.4922Zm4.44336-30.3223v-48.4863c0-2.73438-1.85547-4.63867-4.54102-4.63867-2.58789 0-4.44336 1.9043-4.44336 4.63867v48.4863c0 2.68555 1.85547 4.58984 4.44336 4.58984 2.68555 0 4.54102-1.85547 4.54102-4.58984Zm-28.7109-19.7754h48.4863c2.68555 0 4.58984-1.80664 4.58984-4.39453 0-2.73438-1.85547-4.58984-4.58984-4.58984h-48.4863c-2.73438 0-4.58984 1.85547-4.58984 4.58984 0 2.58789 1.85547 4.39453 4.58984 4.39453Z"/>
  </g>
  <text style="stroke:none;fill:black;font-family:sans-serif;font-size:13;font-weight:bold;" transform="matrix(1 0 0 1 263 1953)">Design Variations</text>
  <text style="stroke:none;fill:black;font-family:sans-serif;font-size:13;" transform="matrix(1 0 0 1 263 1971)">Symbols are supported in up to nine weights and three scales.</text>
  <text style="stroke:none;fill:black;font-family:sans-serif;font-size:13;" transform="matrix(1 0 0 1 263 1989)">For optimal layout with text and other symbols, vertically align</text>
  <text style="stroke:none;fill:black;font-family:sans-serif;font-size:13;" transform="matrix(1 0 0 1 263 2007)">symbols with the adjacent text.</text>
  <line style="fill:none;stroke:#00AEEF;stroke-width:0.5;opacity:1.0;" x1="776" x2="776" y1="1919" y2="1933"/>
  <g transform="matrix(0.2 0 0 0.2 776 1933)">
   <path d="m16.5527 0.78125c2.58789 0 3.85742-0.976562 4.78516-3.71094l20.5566-57.5195h0.244141l20.6055 57.5195c0.927734 2.73438 2.19727 3.71094 4.73633 3.71094 2.58789 0 4.24805-1.5625 4.24805-4.00391 0-0.830078-0.146484-1.61133-0.537109-2.63672l-22.9004-60.9863c-1.12305-2.97852-3.125-4.49219-6.25-4.49219-3.02734 0-5.07812 1.46484-6.15234 4.44336l-22.9004 61.084c-0.390625 1.02539-0.537109 1.80664-0.537109 2.63672 0 2.44141 1.5625 3.95508 4.10156 3.95508Zm10.2051-20.9473h30.6641c2.00195 0 3.66211-1.66016 3.66211-3.66211 0-2.05078-1.66016-3.66211-3.66211-3.66211h-30.6641c-2.00195 0-3.66211 1.61133-3.66211 3.66211 0 2.00195 1.66016 3.66211 3.66211 3.66211Z"/>
  </g>
  <line style="fill:none;stroke:#00AEEF;stroke-width:0.5;opacity:1.0;" x1="792.836" x2="792.836" y1="1919" y2="1933"/>
  <text style="stroke:none;fill:black;font-family:sans-serif;font-size:13;font-weight:bold;" transform="matrix(1 0 0 1 776 1953)">Margins</text>
  <text style="stroke:none;fill:black;font-family:sans-serif;font-size:13;" transform="matrix(1 0 0 1 776 1971)">Leading and trailing margins on the left and right side of each symbol</text>
  <text style="stroke:none;fill:black;font-family:sans-serif;font-size:13;" transform="matrix(1 0 0 1 776 1989)">can be adjusted by modifying the x-location of the margin guidelines.</text>
  <text style="stroke:none;fill:black;font-family:sans-serif;font-size:13;" transform="matrix(1 0 0 1 776 2007)">Modifications are automatically applied proportionally to all</text>
  <text style="stroke:none;fill:black;font-family:sans-serif;font-size:13;" transform="matrix(1 0 0 1 776 2025)">scales and weights.</text>
  <g transform="matrix(0.2 0 0 0.2 1289 1933)">
   <path d="m14.209 13.1348 7.86133 7.86133c4.29688 4.39453 9.32617 4.10156 13.8672-1.02539l60.6934-68.2129-4.88281-4.88281-60.2539 67.6758c-1.80664 1.95312-3.4668 2.44141-5.81055 0.0976562l-5.17578-5.12695c-2.29492-2.29492-1.80664-3.95508 0.195312-5.81055l67.4805-62.1582-4.88281-4.83398-68.0664 62.5977c-4.98047 4.58984-5.32227 9.47266-1.02539 13.8184Zm44.873-97.4609c-2.05078 2.00195-2.24609 4.88281-1.07422 6.78711 1.12305 1.80664 3.4668 3.02734 6.5918 2.24609 5.85938-1.66016 12.5977-2.39258 18.8965 0.927734l-2.68555 7.12891c-1.61133 4.00391-0.732422 6.88477 1.70898 9.42383l10.2539 10.3027c2.34375 2.39258 4.54102 2.44141 7.08008 1.95312l4.44336-0.732422 2.58789 2.53906-0.195312 2.24609c-0.0976562 2.29492 0.537109 4.29688 2.7832 6.49414l3.36914 3.32031c2.29492 2.29492 5.51758 2.49023 7.8125 0.195312l12.9883-13.0371c2.29492-2.34375 2.14844-5.37109-0.195312-7.66602l-3.41797-3.41797c-2.19727-2.19727-4.05273-3.02734-6.34766-2.88086l-2.34375 0.244141-2.44141-2.44141 1.02539-4.6875c0.634766-2.73438-0.244141-4.98047-2.88086-7.61719l-11.2793-11.1816c-12.9395-12.8418-35.5957-11.0352-46.6797-0.146484Zm7.08008 2.05078c8.78906-6.39648 25.9766-5.66406 33.6914 1.95312l12.3047 12.207c1.02539 1.02539 1.2207 1.80664 0.927734 3.32031l-1.46484 6.64062 6.73828 6.68945 4.39453-0.244141c1.12305-0.0488281 1.51367 0.0488281 2.34375 0.878906l2.53906 2.49023-10.8398 10.8398-2.49023-2.49023c-0.830078-0.878906-0.976562-1.2207-0.927734-2.39258l0.292969-4.3457-6.68945-6.73828-6.83594 1.17188c-1.41602 0.292969-2.05078 0.195312-3.17383-0.878906l-8.93555-8.88672c-1.07422-1.02539-1.17188-1.70898-0.488281-3.36914l4.58984-11.4746c-6.10352-6.34766-17.041-7.51953-25.5859-4.58984-0.683594 0.244141-0.927734-0.390625-0.390625-0.78125Z"/>
  </g>
  <text style="stroke:none;fill:black;font-family:sans-serif;font-size:13;font-weight:bold;" transform="matrix(1 0 0 1 1289 1953)">Exporting</text>
  <text style="stroke:none;fill:black;font-family:sans-serif;font-size:13;" transform="matrix(1 0 0 1 1289 1971)">Symbols should be outlined when exporting to ensure the</text>
  <text style="stroke:none;fill:black;font-family:sans-serif;font-size:13;" transform="matrix(1 0 0 1 1289 1989)">design is preserved when submitting to Xcode.</text>
  <text id="template-version" style="stroke:none;fill:black;font-family:sans-serif;font-size:13;text-anchor:end;" transform="matrix(1 0 0 1 3036 1933)">Template v.7.0</text>
  <text style="stroke:none;fill:black;font-family:sans-serif;font-size:13;text-anchor:end;" transform="matrix(1 0 0 1 3036 1951)">Requires Xcode 26 or greater</text>
  <text id="descriptive-name" style="stroke:none;fill:black;font-family:sans-serif;font-size:13;text-anchor:end;" transform="matrix(1 0 0 1 3036 1969)">Generated from capsule</text>
  <text style="stroke:none;fill:black;font-family:sans-serif;font-size:13;text-anchor:end;" transform="matrix(1 0 0 1 3036 1987)">Typeset at 100.0 points</text>
  <text style="stroke:none;fill:black;font-family:sans-serif;font-size:13;" transform="matrix(1 0 0 1 263 726)">Small</text>
  <text style="stroke:none;fill:black;font-family:sans-serif;font-size:13;" transform="matrix(1 0 0 1 263 1156)">Medium</text>
  <text style="stroke:none;fill:black;font-family:sans-serif;font-size:13;" transform="matrix(1 0 0 1 263 1586)">Large</text>
 </g>
 <g id="Guides">
  <g id="H-reference" style="fill:#27AAE1;stroke:none;" transform="matrix(1 0 0 1 339 696)">
   <path d="M0.993654 0L3.63775 0L29.3281-67.1323L30.0303-67.1323L30.0303-70.459L28.1226-70.459ZM11.6885-24.4799L46.9815-24.4799L46.2315-26.7285L12.4385-26.7285ZM55.1196 0L57.7637 0L30.6382-70.459L29.4326-70.459L29.4326-67.1323Z"/>
  </g>
  <line id="Baseline-S" style="fill:none;stroke:#27AAE1;opacity:1;stroke-width:0.5;" x1="263" x2="3036" y1="696" y2="696"/>
  <line id="Capline-S" style="fill:none;stroke:#27AAE1;opacity:1;stroke-width:0.5;" x1="263" x2="3036" y1="625.541" y2="625.541"/>
  <g id="H-reference" style="fill:#27AAE1;stroke:none;" transform="matrix(1 0 0 1 339 1126)">
   <path d="M0.993654 0L3.63775 0L29.3281-67.1323L30.0303-67.1323L30.0303-70.459L28.1226-70.459ZM11.6885-24.4799L46.9815-24.4799L46.2315-26.7285L12.4385-26.7285ZM55.1196 0L57.7637 0L30.6382-70.459L29.4326-70.459L29.4326-67.1323Z"/>
  </g>
  <line id="Baseline-M" style="fill:none;stroke:#27AAE1;opacity:1;stroke-width:0.5;" x1="263" x2="3036" y1="1126" y2="1126"/>
  <line id="Capline-M" style="fill:none;stroke:#27AAE1;opacity:1;stroke-width:0.5;" x1="263" x2="3036" y1="1055.54" y2="1055.54"/>
  <g id="H-reference" style="fill:#27AAE1;stroke:none;" transform="matrix(1 0 0 1 339 1556)">
   <path d="M0.993654 0L3.63775 0L29.3281-67.1323L30.0303-67.1323L30.0303-70.459L28.1226-70.459ZM11.6885-24.4799L46.9815-24.4799L46.2315-26.7285L12.4385-26.7285ZM55.1196 0L57.7637 0L30.6382-70.459L29.4326-70.459L29.4326-67.1323Z"/>
  </g>
  <line id="Baseline-L" style="fill:none;stroke:#27AAE1;opacity:1;stroke-width:0.5;" x1="263" x2="3036" y1="1556" y2="1556"/>
  <line id="Capline-L" style="fill:none;stroke:#27AAE1;opacity:1;stroke-width:0.5;" x1="263" x2="3036" y1="1485.54" y2="1485.54"/>
  <line id="right-margin-Black-S" style="fill:none;stroke:#00AEEF;stroke-width:0.5;opacity:1.0;" x1="2992.53" x2="2992.53" y1="600.785" y2="720.121"/>
  <line id="left-margin-Black-S" style="fill:none;stroke:#00AEEF;stroke-width:0.5;opacity:1.0;" x1="2874.27" x2="2874.27" y1="600.785" y2="720.121"/>
  <line id="right-margin-Regular-S" style="fill:none;stroke:#00AEEF;stroke-width:0.5;opacity:1.0;" x1="1506.29" x2="1506.29" y1="600.785" y2="720.121"/>
  <line id="left-margin-Regular-S" style="fill:none;stroke:#00AEEF;stroke-width:0.5;opacity:1.0;" x1="1393.4" x2="1393.4" y1="600.785" y2="720.121"/>
  <line id="right-margin-Ultralight-S" style="fill:none;stroke:#00AEEF;stroke-width:0.5;opacity:1.0;" x1="613.455" x2="613.455" y1="600.785" y2="720.121"/>
  <line id="left-margin-Ultralight-S" style="fill:none;stroke:#00AEEF;stroke-width:0.5;opacity:1.0;" x1="505.968" x2="505.968" y1="600.785" y2="720.121"/>
 </g>
 <g id="Symbols">
  <g id="Black-S" transform="matrix(1 0 0 1 2874.27 696)">
   <path class="monochrome-0 multicolor-0:tintColor hierarchical-0:secondary SFSymbolsPreviewWireframe" d="M6.83594-35.2539C6.83594-11.9629 22.7051 3.56445 46.4844 3.56445L71.7773 3.56445C95.5566 3.56445 111.426-11.9629 111.426-35.2539C111.426-58.5449 95.5566-74.0723 71.7773-74.0723L46.4844-74.0723C22.7051-74.0723 6.83594-58.5449 6.83594-35.2539ZM20.9961-35.2539C20.9961-50.3906 30.8105-59.9121 46.4844-59.9121L71.7773-59.9121C87.4512-59.9121 97.2656-50.3906 97.2656-35.2539C97.2656-20.1172 87.4512-10.5957 71.7773-10.5957L46.4844-10.5957C30.8105-10.5957 20.9961-20.1172 20.9961-35.2539Z"/>
   <path class="monochrome-1 multicolor-1:tintColor hierarchical-1:primary SFSymbolsPreviewWireframe" d="M79.5668-35.2706C79.5668-36.3765 79.122-37.6086 78.4061-38.2941L68.9632-47.7125C68.1285-48.5487 67.1064-48.9904 66.0249-48.9904C63.6716-48.9904 62.0631-47.2997 62.0631-45.1124C62.0631-43.8056 62.6814-42.8946 63.4627-42.1438L65.4572-40.2256L71.8531-35.2706L65.4572-30.3156L63.4627-28.3686C62.6814-27.6177 62.0631-26.7068 62.0631-25.4C62.0631-23.2126 63.6716-21.5219 66.0249-21.5219C67.1064-21.5219 68.1285-21.9636 68.9632-22.7998L78.4061-32.2472C79.122-32.9616 79.5668-34.1648 79.5668-35.2706ZM43.736-35.2706C43.736-33.0972 45.4861-31.4035 47.6596-31.3472L54.944-31.1367L63.319-31.1367L70.605-31.3472C72.7754-31.4035 74.5285-33.0972 74.5285-35.2706C74.5285-37.444 72.7754-39.1377 70.605-39.1941L63.319-39.4045L54.944-39.4045L47.6596-39.1941C45.4861-39.1377 43.736-37.444 43.736-35.2706ZM38.6978-35.2706C38.6978-34.1648 39.141-32.9616 39.854-32.2472L49.2999-22.7998C50.133-21.9636 51.1581-21.5219 52.2396-21.5219C54.5929-21.5219 56.1984-23.2126 56.1984-25.4C56.1984-26.7068 55.5801-27.6177 54.8003-28.3686L52.8074-30.3156L46.4099-35.2706L52.8074-40.2256L54.8003-42.1438C55.5801-42.8946 56.1984-43.8056 56.1984-45.1124C56.1984-47.2997 54.5929-48.9904 52.2396-48.9904C51.1581-48.9904 50.133-48.5487 49.2999-47.7125L39.854-38.2941C39.141-37.6086 38.6978-36.3765 38.6978-35.2706Z"/>
  </g>
  <g id="Regular-S" transform="matrix(1 0 0 1 1393.4 696)">
   <path class="monochrome-0 multicolor-0:tintColor hierarchical-0:secondary SFSymbolsPreviewWireframe" d="M6.83594-35.2539C6.83594-12.8906 22.5098 1.9043 46.0938 1.9043L66.7969 1.9043C90.332 1.9043 106.055-12.8906 106.055-35.2539C106.055-57.6172 90.332-72.4121 66.7969-72.4121L46.0938-72.4121C22.5098-72.4121 6.83594-57.6172 6.83594-35.2539ZM13.8672-35.2539C13.8672-53.0273 27.0996-65.3809 46.0938-65.3809L66.7969-65.3809C85.791-65.3809 98.9746-53.0273 98.9746-35.2539C98.9746-17.4805 85.791-5.12695 66.7969-5.12695L46.0938-5.12695C27.0996-5.12695 13.8672-17.4805 13.8672-35.2539Z"/>
   <path class="monochrome-1 multicolor-1:tintColor hierarchical-1:primary SFSymbolsPreviewWireframe" d="M76.1158-35.2538C76.1158-36.0353 75.8137-36.8562 75.2528-37.3894L65.4016-47.0691C64.82-47.6367 64.0439-47.9667 63.3163-47.9667C61.6355-47.9667 60.4982-46.7807 60.4982-45.1834C60.4982-44.3031 60.8731-43.6761 61.4181-43.1587L64.6528-40.0284L70.6128-35.2538L64.6528-30.4792L61.4181-27.3368C60.8731-26.8194 60.4982-26.1924 60.4982-25.3122C60.4982-23.7148 61.6355-22.5289 63.3163-22.5289C64.0439-22.5289 64.82-22.8588 65.4016-23.4264L75.2528-33.1183C75.8137-33.6636 76.1158-34.4724 76.1158-35.2538ZM39.7926-35.2538C39.7926-33.7782 40.9889-32.6201 42.4645-32.582L49.7605-32.3491L63.1451-32.3491L70.4272-32.582C71.9012-32.6201 73.0991-33.7782 73.0991-35.2538C73.0991-36.7294 71.9012-37.8875 70.4272-37.9257L63.1451-38.1586L49.7605-38.1586L42.4645-37.9257C40.9889-37.8875 39.7926-36.7294 39.7926-35.2538ZM36.7759-35.2538C36.7759-34.4724 37.0919-33.6636 37.6512-33.1183L47.504-23.4264C48.0701-22.8588 48.8478-22.5289 49.5754-22.5289C51.2562-22.5289 52.3918-23.7148 52.3918-25.3122C52.3918-26.1924 52.0169-26.8194 51.4874-27.3368L48.2389-30.4792L42.2928-35.2538L48.2389-40.0284L51.4874-43.1587C52.0169-43.6761 52.3918-44.3031 52.3918-45.1834C52.3918-46.7807 51.2562-47.9667 49.5754-47.9667C48.8478-47.9667 48.0701-47.6367 47.504-47.0691L37.6512-37.3894C37.0919-36.8562 36.7759-36.0353 36.7759-35.2538Z"/>
  </g>
  <g id="Ultralight-S" transform="matrix(1 0 0 1 505.968 696)">
   <path class="monochrome-0 multicolor-0:tintColor hierarchical-0:secondary SFSymbolsPreviewWireframe" d="M6.83594-35.2539C6.83594-14.0713 20.2393-0.820291 40.9624-0.820291L66.5698-0.820291C87.2896-0.820291 100.651-14.0713 100.651-35.2539C100.651-56.4365 87.2896-69.6875 66.5698-69.6875L40.9624-69.6875C20.2393-69.6875 6.83594-56.4365 6.83594-35.2539ZM9.05375-35.2539C9.05375-55.4341 21.1963-67.4697 40.9624-67.4697L66.5698-67.4697C86.2905-67.4697 98.4751-55.4341 98.4751-35.2539C98.4751-15.0737 86.2905-3.0381 66.5698-3.0381L40.9624-3.0381C21.1963-3.0381 9.05375-15.0737 9.05375-35.2539Z"/>
   <path class="monochrome-1 multicolor-1:tintColor hierarchical-1:primary SFSymbolsPreviewWireframe" d="M71.9451-35.2417C71.9451-35.5486 71.8361-35.8022 71.6126-36.0302L61.2261-46.364C61.0225-46.5575 60.7244-46.6865 60.4476-46.6865C59.8081-46.6865 59.3867-46.2407 59.3867-45.64C59.3867-45.3231 59.4956-45.0664 59.6748-44.8829L64.8713-39.7509L69.7958-35.2417L64.8713-30.7326L59.6748-25.6005C59.4956-25.417 59.3867-25.1603 59.3867-24.8434C59.3867-24.2428 59.8081-23.7969 60.4476-23.7969C60.7244-23.7969 61.0225-23.9259 61.2261-24.1194L71.6126-34.4532C71.8361-34.6812 71.9451-34.9348 71.9451-35.2417ZM36.6623-35.2417C36.6623-34.7356 37.0982-34.3098 37.6043-34.2998L43.032-34.1707L64.4647-34.1707L69.8824-34.2998C70.4028-34.3098 70.8243-34.7356 70.8243-35.2417C70.8243-35.7477 70.4028-36.1736 69.8824-36.1836L64.4647-36.3127L43.032-36.3127L37.6043-36.1836C37.0982-36.1736 36.6623-35.7477 36.6623-35.2417ZM35.5416-35.2417C35.5416-34.9348 35.6606-34.6812 35.8985-34.4532L46.2706-24.1194C46.4785-23.9259 46.7623-23.7969 47.0391-23.7969C47.6785-23.7969 48.1144-24.2428 48.1144-24.8434C48.1144-25.1603 48.0054-25.417 47.8219-25.6005L42.6154-30.7326L37.7009-35.2417L42.6154-39.7509L47.8219-44.8829C48.0054-45.0664 48.1144-45.3231 48.1144-45.64C48.1144-46.2407 47.6785-46.6865 47.0391-46.6865C46.7623-46.6865 46.4785-46.5575 46.2706-46.364L35.8985-36.0302C35.6606-35.8022 35.5416-35.5486 35.5416-35.2417Z"/>
  </g>
 </g>
</svg>
