<?xml version="1.0" encoding="UTF-8"?>
<!--Generator: Apple Native CoreSVG 341-->
<!DOCTYPE svg
PUBLIC "-//W3C//DTD SVG 1.1//EN"
       "http://www.w3.org/Graphics/SVG/1.1/DTD/svg11.dtd">
<svg version="1.1" xmlns="http://www.w3.org/2000/svg" xmlns:xlink="http://www.w3.org/1999/xlink" viewBox="0 0 3300 2200">
 <!--glyph: "", point size: 100.0, font version: "21.1d1e1", template writer version: "138.0.0"-->
 <style>.defaults {-sfsymbols-variable-value-mode:color;-sfsymbols-draw-reverses-motion-groups:false}

.monochrome-0 {-sfsymbols-motion-group:1;-sfsymbols-layer-tags:-7a048e59ffcec36c _enclosure.stroke capsule}
.monochrome-1 {-sfsymbols-motion-group:0;-sfsymbols-always-pulses:true;-sfsymbols-layer-tags:-7a048e59ffcec36c -b310f7c42a851a9 numbers}
.monochrome-2 {-sfsymbols-motion-group:0;-sfsymbols-always-pulses:true;-sfsymbols-layer-tags:-7a048e59ffcec36c -b310f7c42a851a9 numbers}
.monochrome-3 {-sfsymbols-motion-group:0;-sfsymbols-always-pulses:true;-sfsymbols-layer-tags:-7a048e59ffcec36c -b310f7c42a851a9 numbers}

.multicolor-0:tintColor {-sfsymbols-motion-group:1;-sfsymbols-layer-tags:-7a048e59ffcec36c _enclosure.stroke capsule}
.multicolor-1:tintColor {-sfsymbols-motion-group:0;-sfsymbols-always-pulses:true;-sfsymbols-layer-tags:-7a048e59ffcec36c -b310f7c42a851a9 numbers}
.multicolor-2:tintColor {-sfsymbols-motion-group:0;-sfsymbols-always-pulses:true;-sfsymbols-layer-tags:-7a048e59ffcec36c -b310f7c42a851a9 numbers}
.multicolor-3:tintColor {-sfsymbols-motion-group:0;-sfsymbols-always-pulses:true;-sfsymbols-layer-tags:-7a048e59ffcec36c -b310f7c42a851a9 numbers}

.hierarchical-0:secondary {-sfsymbols-motion-group:1;-sfsymbols-layer-tags:-7a048e59ffcec36c _enclosure.stroke capsule}
.hierarchical-1:primary {-sfsymbols-motion-group:0;-sfsymbols-always-pulses:true;-sfsymbols-layer-tags:-7a048e59ffcec36c -b310f7c42a851a9 numbers}
.hierarchical-2:primary {-sfsymbols-motion-group:0;-sfsymbols-always-pulses:true;-sfsymbols-layer-tags:-7a048e59ffcec36c -b310f7c42a851a9 numbers}
.hierarchical-3:primary {-sfsymbols-motion-group:0;-sfsymbols-always-pulses:true;-sfsymbols-layer-tags:-7a048e59ffcec36c -b310f7c42a851a9 numbers}

.SFSymbolsPreviewWireframe {fill:none;opacity:1.0;stroke:black;stroke-width:0.5}
</style>
 <g id="Notes">
  <rect height="2200" id="artboard" style="fill:white;opacity:1" width="3300" x="0" y="0"/>
  <line style="fill:none;stroke:black;opacity:1;stroke-width:0.5;" x1="263" x2="3036" y1="292" y2="292"/>
  <text style="stroke:none;fill:black;font-family:sans-serif;font-size:13;font-weight:bold;" transform="matrix(1 0 0 1 263 322)">Weight/Scale Variations</text>
  <text style="stroke:none;fill:black;font-family:sans-serif;font-size:13;text-anchor:middle;" transform="matrix(1 0 0 1 559.711 322)">Ultralight</text>
  <text style="stroke:none;fill:black;font-family:sans-serif;font-size:13;text-anchor:middle;" transform="matrix(1 0 0 1 856.422 322)">Thin</text>
  <text style="stroke:none;fill:black;font-family:sans-serif;font-size:13;text-anchor:middle;" transform="matrix(1 0 0 1 1153.13 322)">Light</text>
  <text style="stroke:none;fill:black;font-family:sans-serif;font-size:13;text-anchor:middle;" transform="matrix(1 0 0 1 1449.84 322)">Regular</text>
  <text style="stroke:none;fill:black;font-family:sans-serif;font-size:13;text-anchor:middle;" transform="matrix(1 0 0 1 1746.56 322)">Medium</text>
  <text style="stroke:none;fill:black;font-family:sans-serif;font-size:13;text-anchor:middle;" transform="matrix(1 0 0 1 2043.27 322)">Semibold</text>
  <text style="stroke:none;fill:black;font-family:sans-serif;font-size:13;text-anchor:middle;" transform="matrix(1 0 0 1 2339.98 322)">Bold</text>
  <text style="stroke:none;fill:black;font-family:sans-serif;font-size:13;text-anchor:middle;" transform="matrix(1 0 0 1 2636.69 322)">Heavy</text>
  <text style="stroke:none;fill:black;font-family:sans-serif;font-size:13;text-anchor:middle;" transform="matrix(1 0 0 1 2933.4 322)">Black</text>
  <line style="fill:none;stroke:black;opacity:1;stroke-width:0.5;" x1="263" x2="3036" y1="1903" y2="1903"/>
  <g transform="matrix(0.2 0 0 0.2 263 1933)">
   <path d="m46.2402 4.15039c21.7773 0 39.4531-17.627 39.4531-39.4043s-17.6758-39.4043-39.4531-39.4043c-21.7285 0-39.4043 17.627-39.4043 39.4043s17.6758 39.4043 39.4043 39.4043Zm0-7.42188c-17.6758 0-31.9336-14.3066-31.9336-31.9824s14.2578-31.9824 31.9336-31.9824 31.9824 14.3066 31.9824 31.9824-14.3066 31.9824-31.9824 31.9824Zm3.61328-17.7734v-28.4668c0-2.24609-1.46484-3.75977-3.71094-3.75977-2.14844 0-3.61328 1.51367-3.61328 3.75977v28.4668c0 2.19727 1.46484 3.71094 3.61328 3.71094 2.24609 0 3.71094-1.51367 3.71094-3.71094Zm-17.8223-10.5957h28.418c2.19727 0 3.71094-1.46484 3.71094-3.61328 0-2.19727-1.51367-3.71094-3.71094-3.71094h-28.418c-2.24609 0-3.75977 1.51367-3.75977 3.71094 0 2.14844 1.51367 3.61328 3.75977 3.61328Z"/>
  </g>
  <g transform="matrix(0.2 0 0 0.2 281.506 1933)">
   <path d="m58.5449 14.5508c27.4902 0 49.8047-22.3145 49.8047-49.8047s-22.3145-49.8047-49.8047-49.8047-49.8047 22.3145-49.8047 49.8047 22.3145 49.8047 49.8047 49.8047Zm0-8.30078c-22.9492 0-41.5039-18.5547-41.5039-41.5039s18.5547-41.5039 41.5039-41.5039 41.5039 18.5547 41.5039 41.5039-18.5547 41.5039-41.5039 41.5039Zm4.05273-23.0957v-36.9141c0-2.49023-1.70898-4.19922-4.15039-4.19922-2.39258 0-4.05273 1.70898-4.05273 4.19922v36.9141c0 2.44141 1.66016 4.15039 4.05273 4.15039 2.44141 0 4.15039-1.66016 4.15039-4.15039Zm-22.5586-14.4043h36.9629c2.44141 0 4.15039-1.61133 4.15039-4.00391 0-2.44141-1.70898-4.15039-4.15039-4.15039h-36.9629c-2.49023 0-4.15039 1.70898-4.15039 4.15039 0 2.39258 1.66016 4.00391 4.15039 4.00391Z"/>
  </g>
  <g transform="matrix(0.2 0 0 0.2 304.924 1933)">
   <path d="m74.8535 28.3203c35.1074 0 63.623-28.4668 63.623-63.5742s-28.5156-63.623-63.623-63.623-63.5742 28.5156-63.5742 63.623 28.4668 63.5742 63.5742 63.5742Zm0-9.08203c-30.127 0-54.4922-24.3652-54.4922-54.4922s24.3652-54.4922 54.4922-54.4922 54.4922 24.3652 54.4922 54.4922-24.3652 54.4922-54.4922 54.4922Zm4.44336-30.3223v-48.4863c0-2.73438-1.85547-4.63867-4.54102-4.63867-2.58789 0-4.44336 1.9043-4.44336 4.63867v48.4863c0 2.68555 1.85547 4.58984 4.44336 4.58984 2.68555 0 4.54102-1.85547 4.54102-4.58984Zm-28.7109-19.7754h48.4863c2.68555 0 4.58984-1.80664 4.58984-4.39453 0-2.73438-1.85547-4.58984-4.58984-4.58984h-48.4863c-2.73438 0-4.58984 1.85547-4.58984 4.58984 0 2.58789 1.85547 4.39453 4.58984 4.39453Z"/>
  </g>
  <text style="stroke:none;fill:black;font-family:sans-serif;font-size:13;font-weight:bold;" transform="matrix(1 0 0 1 263 1953)">Design Variations</text>
  <text style="stroke:none;fill:black;font-family:sans-serif;font-size:13;" transform="matrix(1 0 0 1 263 1971)">Symbols are supported in up to nine weights and three scales.</text>
  <text style="stroke:none;fill:black;font-family:sans-serif;font-size:13;" transform="matrix(1 0 0 1 263 1989)">For optimal layout with text and other symbols, vertically align</text>
  <text style="stroke:none;fill:black;font-family:sans-serif;font-size:13;" transform="matrix(1 0 0 1 263 2007)">symbols with the adjacent text.</text>
  <line style="fill:none;stroke:#00AEEF;stroke-width:0.5;opacity:1.0;" x1="776" x2="776" y1="1919" y2="1933"/>
  <g transform="matrix(0.2 0 0 0.2 776 1933)">
   <path d="m16.5527 0.78125c2.58789 0 3.85742-0.976562 4.78516-3.71094l20.5566-57.5195h0.244141l20.6055 57.5195c0.927734 2.73438 2.19727 3.71094 4.73633 3.71094 2.58789 0 4.24805-1.5625 4.24805-4.00391 0-0.830078-0.146484-1.61133-0.537109-2.63672l-22.9004-60.9863c-1.12305-2.97852-3.125-4.49219-6.25-4.49219-3.02734 0-5.07812 1.46484-6.15234 4.44336l-22.9004 61.084c-0.390625 1.02539-0.537109 1.80664-0.537109 2.63672 0 2.44141 1.5625 3.95508 4.10156 3.95508Zm10.2051-20.9473h30.6641c2.00195 0 3.66211-1.66016 3.66211-3.66211 0-2.05078-1.66016-3.66211-3.66211-3.66211h-30.6641c-2.00195 0-3.66211 1.61133-3.66211 3.66211 0 2.00195 1.66016 3.66211 3.66211 3.66211Z"/>
  </g>
  <line style="fill:none;stroke:#00AEEF;stroke-width:0.5;opacity:1.0;" x1="792.836" x2="792.836" y1="1919" y2="1933"/>
  <text style="stroke:none;fill:black;font-family:sans-serif;font-size:13;font-weight:bold;" transform="matrix(1 0 0 1 776 1953)">Margins</text>
  <text style="stroke:none;fill:black;font-family:sans-serif;font-size:13;" transform="matrix(1 0 0 1 776 1971)">Leading and trailing margins on the left and right side of each symbol</text>
  <text style="stroke:none;fill:black;font-family:sans-serif;font-size:13;" transform="matrix(1 0 0 1 776 1989)">can be adjusted by modifying the x-location of the margin guidelines.</text>
  <text style="stroke:none;fill:black;font-family:sans-serif;font-size:13;" transform="matrix(1 0 0 1 776 2007)">Modifications are automatically applied proportionally to all</text>
  <text style="stroke:none;fill:black;font-family:sans-serif;font-size:13;" transform="matrix(1 0 0 1 776 2025)">scales and weights.</text>
  <g transform="matrix(0.2 0 0 0.2 1289 1933)">
   <path d="m14.209 13.1348 7.86133 7.86133c4.29688 4.39453 9.32617 4.10156 13.8672-1.02539l60.6934-68.2129-4.88281-4.88281-60.2539 67.6758c-1.80664 1.95312-3.4668 2.44141-5.81055 0.0976562l-5.17578-5.12695c-2.29492-2.29492-1.80664-3.95508 0.195312-5.81055l67.4805-62.1582-4.88281-4.83398-68.0664 62.5977c-4.98047 4.58984-5.32227 9.47266-1.02539 13.8184Zm44.873-97.4609c-2.05078 2.00195-2.24609 4.88281-1.07422 6.78711 1.12305 1.80664 3.4668 3.02734 6.5918 2.24609 5.85938-1.66016 12.5977-2.39258 18.8965 0.927734l-2.68555 7.12891c-1.61133 4.00391-0.732422 6.88477 1.70898 9.42383l10.2539 10.3027c2.34375 2.39258 4.54102 2.44141 7.08008 1.95312l4.44336-0.732422 2.58789 2.53906-0.195312 2.24609c-0.0976562 2.29492 0.537109 4.29688 2.7832 6.49414l3.36914 3.32031c2.29492 2.29492 5.51758 2.49023 7.8125 0.195312l12.9883-13.0371c2.29492-2.34375 2.14844-5.37109-0.195312-7.66602l-3.41797-3.41797c-2.19727-2.19727-4.05273-3.02734-6.34766-2.88086l-2.34375 0.244141-2.44141-2.44141 1.02539-4.6875c0.634766-2.73438-0.244141-4.98047-2.88086-7.61719l-11.2793-11.1816c-12.9395-12.8418-35.5957-11.0352-46.6797-0.146484Zm7.08008 2.05078c8.78906-6.39648 25.9766-5.66406 33.6914 1.95312l12.3047 12.207c1.02539 1.02539 1.2207 1.80664 0.927734 3.32031l-1.46484 6.64062 6.73828 6.68945 4.39453-0.244141c1.12305-0.0488281 1.51367 0.0488281 2.34375 0.878906l2.53906 2.49023-10.8398 10.8398-2.49023-2.49023c-0.830078-0.878906-0.976562-1.2207-0.927734-2.39258l0.292969-4.3457-6.68945-6.73828-6.83594 1.17188c-1.41602 0.292969-2.05078 0.195312-3.17383-0.878906l-8.93555-8.88672c-1.07422-1.02539-1.17188-1.70898-0.488281-3.36914l4.58984-11.4746c-6.10352-6.34766-17.041-7.51953-25.5859-4.58984-0.683594 0.244141-0.927734-0.390625-0.390625-0.78125Z"/>
  </g>
  <text style="stroke:none;fill:black;font-family:sans-serif;font-size:13;font-weight:bold;" transform="matrix(1 0 0 1 1289 1953)">Exporting</text>
  <text style="stroke:none;fill:black;font-family:sans-serif;font-size:13;" transform="matrix(1 0 0 1 1289 1971)">Symbols should be outlined when exporting to ensure the</text>
  <text style="stroke:none;fill:black;font-family:sans-serif;font-size:13;" transform="matrix(1 0 0 1 1289 1989)">design is preserved when submitting to Xcode.</text>
  <text id="template-version" style="stroke:none;fill:black;font-family:sans-serif;font-size:13;text-anchor:end;" transform="matrix(1 0 0 1 3036 1933)">Template v.7.0</text>
  <text style="stroke:none;fill:black;font-family:sans-serif;font-size:13;text-anchor:end;" transform="matrix(1 0 0 1 3036 1951)">Requires Xcode 26 or greater</text>
  <text id="descriptive-name" style="stroke:none;fill:black;font-family:sans-serif;font-size:13;text-anchor:end;" transform="matrix(1 0 0 1 3036 1969)">Generated from capsule</text>
  <text style="stroke:none;fill:black;font-family:sans-serif;font-size:13;text-anchor:end;" transform="matrix(1 0 0 1 3036 1987)">Typeset at 100.0 points</text>
  <text style="stroke:none;fill:black;font-family:sans-serif;font-size:13;" transform="matrix(1 0 0 1 263 726)">Small</text>
  <text style="stroke:none;fill:black;font-family:sans-serif;font-size:13;" transform="matrix(1 0 0 1 263 1156)">Medium</text>
  <text style="stroke:none;fill:black;font-family:sans-serif;font-size:13;" transform="matrix(1 0 0 1 263 1586)">Large</text>
 </g>
 <g id="Guides">
  <g id="H-reference" style="fill:#27AAE1;stroke:none;" transform="matrix(1 0 0 1 339 696)">
   <path d="M0.993654 0L3.63775 0L29.3281-67.1323L30.0303-67.1323L30.0303-70.459L28.1226-70.459ZM11.6885-24.4799L46.9815-24.4799L46.2315-26.7285L12.4385-26.7285ZM55.1196 0L57.7637 0L30.6382-70.459L29.4326-70.459L29.4326-67.1323Z"/>
  </g>
  <line id="Baseline-S" style="fill:none;stroke:#27AAE1;opacity:1;stroke-width:0.5;" x1="263" x2="3036" y1="696" y2="696"/>
  <line id="Capline-S" style="fill:none;stroke:#27AAE1;opacity:1;stroke-width:0.5;" x1="263" x2="3036" y1="625.541" y2="625.541"/>
  <g id="H-reference" style="fill:#27AAE1;stroke:none;" transform="matrix(1 0 0 1 339 1126)">
   <path d="M0.993654 0L3.63775 0L29.3281-67.1323L30.0303-67.1323L30.0303-70.459L28.1226-70.459ZM11.6885-24.4799L46.9815-24.4799L46.2315-26.7285L12.4385-26.7285ZM55.1196 0L57.7637 0L30.6382-70.459L29.4326-70.459L29.4326-67.1323Z"/>
  </g>
  <line id="Baseline-M" style="fill:none;stroke:#27AAE1;opacity:1;stroke-width:0.5;" x1="263" x2="3036" y1="1126" y2="1126"/>
  <line id="Capline-M" style="fill:none;stroke:#27AAE1;opacity:1;stroke-width:0.5;" x1="263" x2="3036" y1="1055.54" y2="1055.54"/>
  <g id="H-reference" style="fill:#27AAE1;stroke:none;" transform="matrix(1 0 0 1 339 1556)">
   <path d="M0.993654 0L3.63775 0L29.3281-67.1323L30.0303-67.1323L30.0303-70.459L28.1226-70.459ZM11.6885-24.4799L46.9815-24.4799L46.2315-26.7285L12.4385-26.7285ZM55.1196 0L57.7637 0L30.6382-70.459L29.4326-70.459L29.4326-67.1323Z"/>
  </g>
  <line id="Baseline-L" style="fill:none;stroke:#27AAE1;opacity:1;stroke-width:0.5;" x1="263" x2="3036" y1="1556" y2="1556"/>
  <line id="Capline-L" style="fill:none;stroke:#27AAE1;opacity:1;stroke-width:0.5;" x1="263" x2="3036" y1="1485.54" y2="1485.54"/>
  <line id="right-margin-Black-S" style="fill:none;stroke:#00AEEF;stroke-width:0.5;opacity:1.0;" x1="2992.53" x2="2992.53" y1="600.785" y2="720.121"/>
  <line id="left-margin-Black-S" style="fill:none;stroke:#00AEEF;stroke-width:0.5;opacity:1.0;" x1="2874.27" x2="2874.27" y1="600.785" y2="720.121"/>
  <line id="right-margin-Regular-S" style="fill:none;stroke:#00AEEF;stroke-width:0.5;opacity:1.0;" x1="1506.29" x2="1506.29" y1="600.785" y2="720.121"/>
  <line id="left-margin-Regular-S" style="fill:none;stroke:#00AEEF;stroke-width:0.5;opacity:1.0;" x1="1393.4" x2="1393.4" y1="600.785" y2="720.121"/>
  <line id="right-margin-Ultralight-S" style="fill:none;stroke:#00AEEF;stroke-width:0.5;opacity:1.0;" x1="613.455" x2="613.455" y1="600.785" y2="720.121"/>
  <line id="left-margin-Ultralight-S" style="fill:none;stroke:#00AEEF;stroke-width:0.5;opacity:1.0;" x1="505.968" x2="505.968" y1="600.785" y2="720.121"/>
 </g>
 <g id="Symbols">
  <g id="Black-S" transform="matrix(1 0 0 1 2874.27 696)">
   <path class="monochrome-0 multicolor-0:tintColor hierarchical-0:secondary SFSymbolsPreviewWireframe" d="M6.83594-35.2539C6.83594-11.9629 22.7051 3.56445 46.4844 3.56445L71.7773 3.56445C95.5566 3.56445 111.426-11.9629 111.426-35.2539C111.426-58.5449 95.5566-74.0723 71.7773-74.0723L46.4844-74.0723C22.7051-74.0723 6.83594-58.5449 6.83594-35.2539ZM20.9961-35.2539C20.9961-50.3906 30.8105-59.9121 46.4844-59.9121L71.7773-59.9121C87.4512-59.9121 97.2656-50.3906 97.2656-35.2539C97.2656-20.1172 87.4512-10.5957 71.7773-10.5957L46.4844-10.5957C30.8105-10.5957 20.9961-20.1172 20.9961-35.2539Z"/>
   <path class="monochrome-1 multicolor-1:tintColor hierarchical-1:primary SFSymbolsPreviewWireframe" d="M83.4645-19.6947C91.8699-19.6947 97.0753-23.2389 97.0753-28.8396C97.0753-32.8401 94.1808-35.1357 89.7252-35.6342L89.7252-35.7942C93.3527-36.426 96.0553-38.7716 96.0553-42.3387C96.0553-47.4327 91.3765-50.5862 83.7337-50.5862C77.608-50.5862 73.3151-48.0013 72.1295-45.0225C71.9115-44.435 71.7844-43.8401 71.7844-43.239C71.7844-41.146 73.369-39.7051 75.6485-39.7051C77.565-39.7051 78.7484-40.2234 79.7902-41.6178C81.0869-43.0299 81.9778-43.5277 83.7687-43.5277C85.7079-43.5277 86.9248-42.6227 86.9248-40.9833C86.9248-39.3437 85.7429-38.6426 83.6992-38.6426L83.0113-38.6426C80.7968-38.6426 79.443-37.3388 79.443-35.4407C79.443-33.5062 80.8258-32.1795 83.0113-32.1795L83.6067-32.1795C85.7682-32.1795 86.9729-31.4514 86.9729-29.823C86.9729-28.2344 85.6591-27.2101 83.6625-27.2101C81.9564-27.2101 81.0222-27.5832 79.982-28.6301C78.5646-30.2907 77.6033-30.7907 75.6963-30.7907C73.3127-30.7907 71.5307-29.2934 71.5307-26.9187C71.5307-26.1746 71.7086-25.4504 72.0472-24.7246C73.4948-21.9949 77.4079-19.6947 83.4645-19.6947Z"/>
   <path class="monochrome-2 multicolor-2:tintColor hierarchical-2:primary SFSymbolsPreviewWireframe" d="M47.6571-20.4321L64.7408-20.4321C66.983-20.4321 68.5673-21.8745 68.5673-24.0619C68.5673-26.304 67.0119-27.719 64.7408-27.719L56.066-27.719L56.066-27.9065L62.9403-33.1272C66.0731-35.4598 67.8441-38.5672 67.8441-41.3324C67.8441-46.8365 63.2594-50.4705 55.58-50.4705C49.3372-50.4705 45.3975-48.2676 44.0247-44.048C43.8793-43.5515 43.8226-43.1447 43.8226-42.4934C43.8226-40.2893 45.4416-38.7675 47.8253-38.7675C49.8711-38.7675 51.2128-39.6146 51.9408-41.3361C52.0659-41.6238 52.2124-41.8841 52.3912-42.094C53.0146-42.9089 53.9287-43.3297 55.2618-43.3297C57.2647-43.3297 58.3157-42.3248 58.3157-40.8542C58.3157-39.5622 57.5564-38.2064 55.7504-36.8749L45.8522-29.0168C44.2268-27.6837 43.3892-26.144 43.3892-24.4563C43.3892-21.9902 45.051-20.4321 47.6571-20.4321Z"/>
   <path class="monochrome-3 multicolor-3:tintColor hierarchical-3:primary SFSymbolsPreviewWireframe" d="M34.7428-19.7026C37.7873-19.7026 39.7124-21.4237 39.7124-24.4653L39.7124-45.6695C39.7124-48.8177 37.7036-50.481 34.0073-50.481C31.5188-50.481 29.9805-50.0149 27.4266-48.3579L23.1049-45.5344C21.8206-44.6873 21.1854-43.6347 21.1854-42.2836C21.1854-40.3476 22.567-39.0543 24.5898-39.0543C25.3456-39.0543 25.8391-39.1824 26.4653-39.5907L29.6056-41.6672L29.7976-41.6672L29.7976-24.4653C29.7976-21.4237 31.7288-19.7026 34.7428-19.7026Z"/>
  </g>
  <g id="Regular-S" transform="matrix(1 0 0 1 1393.4 696)">
   <path class="monochrome-0 multicolor-0:tintColor hierarchical-0:secondary SFSymbolsPreviewWireframe" d="M6.83594-35.2539C6.83594-12.8906 22.5098 1.9043 46.0938 1.9043L66.7969 1.9043C90.332 1.9043 106.055-12.8906 106.055-35.2539C106.055-57.6172 90.332-72.4121 66.7969-72.4121L46.0938-72.4121C22.5098-72.4121 6.83594-57.6172 6.83594-35.2539ZM13.8672-35.2539C13.8672-53.0273 27.0996-65.3809 46.0938-65.3809L66.7969-65.3809C85.791-65.3809 98.9746-53.0273 98.9746-35.2539C98.9746-17.4805 85.791-5.12695 66.7969-5.12695L46.0938-5.12695C27.0996-5.12695 13.8672-17.4805 13.8672-35.2539Z"/>
   <path class="monochrome-1 multicolor-1:tintColor hierarchical-1:primary SFSymbolsPreviewWireframe" d="M77.8056-20.5148C84.7843-20.5148 89.4525-24.0017 89.4525-29.0595C89.4525-32.9326 86.6672-35.3092 82.276-35.6887L82.276-35.7984C85.8936-36.4021 88.3304-38.8022 88.3304-42.2686C88.3304-46.8169 84.1678-49.8837 77.8791-49.8837C73.0281-49.8837 69.386-47.8575 68.0448-45.0147C67.723-44.3249 67.5541-43.6753 67.5541-42.934C67.5541-41.4507 68.6377-40.4418 70.1862-40.4418C71.5657-40.4418 72.3378-40.8581 72.9627-42.0331C74.0219-43.9567 75.4983-44.8863 77.8062-44.8863C80.5048-44.8863 82.1448-43.5718 82.1448-41.3803C82.1448-39.1479 80.4023-37.8456 77.7091-37.8456L76.2997-37.8456C74.7647-37.8456 73.7923-36.9081 73.7923-35.5204C73.7923-34.1312 74.7768-33.1848 76.2997-33.1848L77.6988-33.1848C80.8919-33.1848 82.7429-31.9267 82.7429-29.5013C82.7429-27.2671 80.7917-25.7619 77.9029-25.7619C75.4053-25.7619 73.8017-26.6381 72.8203-28.4064C72.0085-29.635 71.2877-30.0889 69.954-30.0889C68.275-30.0889 67.0944-29.0419 67.0944-27.3677C67.0944-26.6402 67.2839-25.9494 67.6716-25.2137C69.2665-22.378 72.7861-20.5148 77.8056-20.5148Z"/>
   <path class="monochrome-2 multicolor-2:tintColor hierarchical-2:primary SFSymbolsPreviewWireframe" d="M45.8065-21.0984L61.7149-21.0984C63.3055-21.0984 64.389-22.1228 64.389-23.6613C64.389-25.2224 63.3176-26.2501 61.7149-26.2501L51.4869-26.2501L51.4869-26.3858L58.1582-32.4849C61.9919-36.0655 63.6131-38.6315 63.6131-41.4932C63.6131-46.3691 59.3878-49.8352 53.0976-49.8352C48.0468-49.8352 44.3181-47.5872 43.0768-43.8123C42.905-43.253 42.826-42.82 42.826-42.2793C42.826-40.7352 43.8953-39.6638 45.5154-39.6638C46.9949-39.6638 47.8023-40.2927 48.3107-41.6649C48.4639-42.1246 48.6692-42.5289 48.9292-42.8688C49.7864-44.1044 51.1645-44.7891 52.9642-44.7891C55.4435-44.7891 57.2175-43.2209 57.2175-41.1618C57.2175-39.3929 56.3814-38.0977 53.5824-35.429L44.6464-27.1256C43.4446-26.0173 42.8909-25.0539 42.8909-23.8696C42.8909-22.1713 44.0353-21.0984 45.8065-21.0984Z"/>
   <path class="monochrome-3 multicolor-3:tintColor hierarchical-3:primary SFSymbolsPreviewWireframe" d="M34.9612-20.5155C36.961-20.5155 38.2456-21.6997 38.2456-23.6978L38.2456-46.389C38.2456-48.578 36.8673-49.7379 34.4928-49.7379C32.856-49.7379 31.8786-49.3541 30.2576-48.2972L24.9097-44.7981C23.8797-44.1103 23.4403-43.3654 23.4403-42.3651C23.4403-41.0193 24.4094-40.1022 25.8211-40.1022C26.4848-40.1022 26.8651-40.2569 27.3585-40.587L31.6073-43.3275L31.7307-43.3275L31.7307-23.6978C31.7307-21.6997 32.9891-20.5155 34.9612-20.5155Z"/>
  </g>
  <g id="Ultralight-S" transform="matrix(1 0 0 1 505.968 696)">
   <path class="monochrome-0 multicolor-0:tintColor hierarchical-0:secondary SFSymbolsPreviewWireframe" d="M6.83594-35.2539C6.83594-14.0713 20.2393-0.820291 40.9624-0.820291L66.5698-0.820291C87.2896-0.820291 100.651-14.0713 100.651-35.2539C100.651-56.4365 87.2896-69.6875 66.5698-69.6875L40.9624-69.6875C20.2393-69.6875 6.83594-56.4365 6.83594-35.2539ZM9.05375-35.2539C9.05375-55.4341 21.1963-67.4697 40.9624-67.4697L66.5698-67.4697C86.2905-67.4697 98.4751-55.4341 98.4751-35.2539C98.4751-15.0737 86.2905-3.0381 66.5698-3.0381L40.9624-3.0381C21.1963-3.0381 9.05375-15.0737 9.05375-35.2539Z"/>
   <path class="monochrome-1 multicolor-1:tintColor hierarchical-1:primary SFSymbolsPreviewWireframe" d="M72.7441-21.0772C78.3317-21.0772 82.4315-24.4476 82.4315-29.0532C82.4315-32.9093 79.635-35.4946 75.2604-35.7732L75.2604-35.8464C78.9459-36.4899 81.2207-38.9745 81.2207-42.368C81.2207-46.4321 77.566-49.4062 72.5558-49.4062C68.6108-49.4062 65.3938-47.4683 64.2556-44.3785C64.0089-43.78 63.8999-43.2259 63.8999-42.6836C63.8999-42.0612 64.2913-41.6798 64.8462-41.6798C65.4774-41.6798 65.6822-42.0072 65.8557-42.6484C66.5332-45.5721 69.1382-47.4892 72.51-47.4892C76.3428-47.4892 79.0542-45.2635 79.0542-42.1475C79.0542-38.8863 76.2915-36.6393 72.273-36.6393L69.8018-36.6393C69.2081-36.6393 68.8267-36.2967 68.8267-35.713C68.8267-35.1682 69.2081-34.7968 69.8018-34.7968L72.3072-34.7968C77.2365-34.7968 80.1848-32.6905 80.1848-29.0588C80.1848-25.5473 77.0525-23.0343 72.7686-23.0343C68.9486-23.0343 65.9755-24.9945 65.3068-28.0046C65.1276-28.6057 64.8208-28.8913 64.2916-28.8913C63.6622-28.8913 63.2464-28.4998 63.2464-27.8273C63.2464-27.2919 63.3841-26.8055 63.6121-26.3177C64.9081-22.985 68.4286-21.0772 72.7441-21.0772Z"/>
   <path class="monochrome-2 multicolor-2:tintColor hierarchical-2:primary SFSymbolsPreviewWireframe" d="M42.9106-21.3396L59.246-21.3396C59.8554-21.3396 60.2468-21.7166 60.2468-22.3059C60.2468-22.9096 59.8554-23.2823 59.246-23.2823L44.8934-23.2823L44.8934-23.3655L53.0393-31.9759C57.5145-36.6983 59.0426-38.828 59.0426-41.7145C59.0426-46.0615 55.3322-49.4062 50.3609-49.4062C46.5315-49.4062 43.2405-47.366 42.0642-44.1826C41.7682-43.4427 41.6129-42.7055 41.6129-42.1696C41.6129-41.5227 41.9699-41.1069 42.588-41.1069C43.163-41.1069 43.4341-41.3981 43.5888-42.0075C43.7022-42.6366 43.8599-43.25 44.1485-43.819C45.1595-45.9139 47.3534-47.4648 50.3609-47.4648C53.9801-47.4648 56.8318-44.8441 56.8318-41.6243C56.8318-39.2556 55.6551-37.5688 51.5682-33.2735L42.4716-23.6423C41.9812-23.1319 41.7977-22.8251 41.7977-22.3648C41.7977-21.7166 42.238-21.3396 42.9106-21.3396Z"/>
   <path class="monochrome-3 multicolor-3:tintColor hierarchical-3:primary SFSymbolsPreviewWireframe" d="M34.1456-21.1779C34.8051-21.1779 35.2366-21.6138 35.2366-22.2877L35.2366-48.1548C35.2366-48.9002 34.7794-49.3361 34.0353-49.3361C33.5093-49.3361 33.1924-49.177 32.7108-48.8688L25.6906-44.4763C25.2347-44.1739 25.0568-43.8914 25.0568-43.49C25.0568-42.9608 25.4426-42.5707 25.9774-42.5707C26.3043-42.5707 26.4678-42.6696 26.7001-42.8231L33.0258-46.6889L33.0847-46.6889L33.0847-22.2877C33.0847-21.6138 33.4818-21.1779 34.1456-21.1779Z"/>
  </g>
 </g>
</svg>
