<svg width="512" height="512" viewBox="0 0 512 512" fill="none" xmlns="http://www.w3.org/2000/svg">
<g filter="url(#filter0_i_265_13208)">
<path d="M220.71 286.176H238.327V266.267C238.327 264.026 238.327 262.906 238.763 262.051C239.146 261.298 239.758 260.686 240.511 260.303C241.366 259.867 242.486 259.866 244.727 259.866H267.028C269.268 259.866 270.389 259.867 271.244 260.303C271.997 260.686 272.609 261.298 272.992 262.051C273.428 262.906 273.428 264.027 273.428 266.267V286.176H291.053C294.599 286.176 296.391 290.447 293.907 292.978L258.736 328.803C257.169 330.4 254.595 330.399 253.027 328.803L217.856 292.978C215.372 290.447 217.164 286.176 220.71 286.176ZM267.027 243.676C269.267 243.676 270.388 243.675 271.243 244.111C271.996 244.495 272.608 245.107 272.991 245.859C273.427 246.715 273.428 247.835 273.428 250.075V250.426C273.428 252.666 273.427 253.786 272.991 254.642C272.608 255.394 271.996 256.006 271.243 256.39C270.388 256.826 269.268 256.826 267.027 256.826H244.727C242.486 256.826 241.366 256.826 240.511 256.39C239.758 256.006 239.146 255.394 238.763 254.642C238.327 253.786 238.327 252.666 238.327 250.426V250.075C238.327 247.835 238.327 246.715 238.763 245.859C239.146 245.107 239.758 244.495 240.511 244.111C241.366 243.675 242.486 243.676 244.727 243.676H267.027ZM309.356 186C311.597 186 312.718 186 313.573 186.436C314.326 186.819 314.938 187.431 315.321 188.184C315.757 189.039 315.757 190.16 315.757 192.4V207.932C315.757 210.172 315.757 211.293 315.321 212.148C314.938 212.901 314.326 213.513 313.573 213.896C312.718 214.332 311.597 214.332 309.356 214.332H279.828C277.588 214.332 276.467 214.332 275.611 214.768C274.859 215.151 274.247 215.763 273.863 216.516C273.427 217.371 273.428 218.492 273.428 220.732V234.239C273.428 236.479 273.428 237.6 272.992 238.456C272.609 239.209 271.997 239.821 271.244 240.204C270.388 240.64 269.268 240.64 267.027 240.64H244.728C242.487 240.64 241.366 240.64 240.511 240.204C239.758 239.821 239.146 239.209 238.763 238.456C238.327 237.6 238.327 236.479 238.327 234.239V220.732C238.327 218.492 238.328 217.371 237.892 216.516C237.508 215.763 236.896 215.151 236.144 214.768C235.288 214.332 234.167 214.332 231.927 214.332H202.4C200.16 214.332 199.039 214.332 198.184 213.896C197.431 213.513 196.819 212.901 196.436 212.148C196 211.293 196 210.172 196 207.932V192.4C196 190.16 196 189.039 196.436 188.184C196.819 187.431 197.431 186.819 198.184 186.436C199.039 186 200.16 186 202.4 186H309.356Z" fill="#BEBEC0"/>
</g>
<mask id="mask0_265_13208" style="mask-type:alpha" maskUnits="userSpaceOnUse" x="196" y="186" width="120" height="144">
<path d="M269.43 259.866C271.638 259.866 273.429 261.657 273.43 263.866V282.175C273.43 284.384 275.221 286.175 277.43 286.175H291.054C294.6 286.175 296.392 290.447 293.908 292.978L258.736 328.802C257.168 330.399 254.596 330.399 253.028 328.802L217.857 292.978C215.373 290.447 217.166 286.175 220.712 286.175H234.328C236.537 286.175 238.328 284.384 238.328 282.175V263.866C238.328 261.657 240.119 259.866 242.328 259.866H269.43ZM273.428 256.826H238.327V243.676H273.428V256.826ZM315.757 214.332H273.428V240.639H238.327V214.332H196V186H315.757V214.332Z" fill="#E0E0E0"/>
</mask>
<g mask="url(#mask0_265_13208)">
<g filter="url(#filter1_d_265_13208)">
<path d="M245.558 277.573C241.521 276.134 239.88 276.055 236.782 277.573L207.359 283.138L215.102 316.53L234.718 338.791H274.981L303.888 308.941L305.436 280.608L278.078 277.573C276.185 277.91 274.207 279.091 270.335 277.573C270.258 277.543 270.182 277.514 270.107 277.485C267.635 276.56 265.663 276.569 262.592 277.573C256.398 279.596 251.236 279.596 245.558 277.573Z" fill="#BEBEC0"/>
</g>
</g>
<defs>
<filter id="filter0_i_265_13208" x="196" y="186" width="119.757" height="144" filterUnits="userSpaceOnUse" color-interpolation-filters="sRGB">
<feFlood flood-opacity="0" result="BackgroundImageFix"/>
<feBlend mode="normal" in="SourceGraphic" in2="BackgroundImageFix" result="shape"/>
<feColorMatrix in="SourceAlpha" type="matrix" values="0 0 0 0 0 0 0 0 0 0 0 0 0 0 0 0 0 0 127 0" result="hardAlpha"/>
<feOffset/>
<feGaussianBlur stdDeviation="2"/>
<feComposite in2="hardAlpha" operator="arithmetic" k2="-1" k3="1"/>
<feColorMatrix type="matrix" values="0 0 0 0 0 0 0 0 0 0 0 0 0 0 0 0 0 0 0.25 0"/>
<feBlend mode="normal" in2="shape" result="effect1_innerShadow_265_13208"/>
</filter>
<filter id="filter1_d_265_13208" x="201.359" y="270.464" width="110.077" height="74.3267" filterUnits="userSpaceOnUse" color-interpolation-filters="sRGB">
<feFlood flood-opacity="0" result="BackgroundImageFix"/>
<feColorMatrix in="SourceAlpha" type="matrix" values="0 0 0 0 0 0 0 0 0 0 0 0 0 0 0 0 0 0 127 0" result="hardAlpha"/>
<feOffset/>
<feGaussianBlur stdDeviation="3"/>
<feComposite in2="hardAlpha" operator="out"/>
<feColorMatrix type="matrix" values="0 0 0 0 0 0 0 0 0 0 0 0 0 0 0 0 0 0 0.5 0"/>
<feBlend mode="normal" in2="BackgroundImageFix" result="effect1_dropShadow_265_13208"/>
<feBlend mode="normal" in="SourceGraphic" in2="effect1_dropShadow_265_13208" result="shape"/>
</filter>
</defs>
</svg>
