<svg width="24" height="24" viewBox="0 0 24 24" fill="none" xmlns="http://www.w3.org/2000/svg">
<path fill-rule="evenodd" clip-rule="evenodd" d="M4.02169 13.5887C4.00729 13.3934 4.00002 13.197 4.00002 12.9999V5.8888C4.00002 5.05075 4.00002 4.63172 4.26036 4.37137C4.52071 4.11102 4.93974 4.11102 5.77779 4.11102H8.44446C9.28251 4.11102 9.70154 4.11102 9.96189 4.37137C10.2222 4.63172 10.2222 5.05075 10.2222 5.8888V12.9999C10.2222 13.4714 10.4095 13.9236 10.7429 14.257C11.0763 14.5904 11.5285 14.7777 12 14.7777C12.4715 14.7777 12.9237 14.5904 13.2571 14.257C13.5905 13.9236 13.7778 13.4714 13.7778 12.9999V5.8888C13.7778 5.05075 13.7778 4.63172 14.0381 4.37137C14.2985 4.11102 14.7175 4.11102 15.5556 4.11102H18.2222C19.0603 4.11102 19.4793 4.11102 19.7397 4.37137C20 4.63172 20 5.05075 20 5.8888V12.9999C20 15.1216 19.1572 17.1565 17.6569 18.6568C16.1566 20.1571 14.1217 20.9999 12 20.9999C11.8029 20.9999 11.6066 20.9926 11.4114 20.9782C11.7879 20.2335 12 19.3915 12 18.5C12 15.4624 9.53757 13 6.5 13C5.60845 13 4.76644 13.2121 4.02169 13.5887ZM8.44446 7.66658C8.93538 7.66658 9.33335 7.26861 9.33335 6.77769V5.8888C9.33335 5.39788 8.93538 4.99991 8.44446 4.99991H5.77779C5.28687 4.99991 4.8889 5.39788 4.8889 5.8888V6.77769C4.8889 7.26861 5.28687 7.66658 5.77779 7.66658H8.44446ZM19.1111 6.77769C19.1111 7.26861 18.7132 7.66658 18.2222 7.66658H15.5556C15.0647 7.66658 14.6667 7.26861 14.6667 6.77769V5.8888C14.6667 5.39788 15.0647 4.99991 15.5556 4.99991H18.2222C18.7132 4.99991 19.1111 5.39788 19.1111 5.8888V6.77769Z" fill="black"/>
<path fill-rule="evenodd" clip-rule="evenodd" d="M11 18.5C11 20.9853 8.98528 23 6.5 23C4.01472 23 2 20.9853 2 18.5C2 16.0147 4.01472 14 6.5 14C8.98528 14 11 16.0147 11 18.5ZM6.5 16C6.77614 16 7 16.2239 7 16.5V18H8.5C8.77614 18 9 18.2239 9 18.5C9 18.7761 8.77614 19 8.5 19H7V20.5C7 20.7761 6.77614 21 6.5 21C6.22386 21 6 20.7761 6 20.5V19H4.5C4.22386 19 4 18.7761 4 18.5C4 18.2239 4.22386 18 4.5 18H6V16.5C6 16.2239 6.22386 16 6.5 16Z" fill="black"/>
</svg>
