<svg width="30" height="30" viewBox="0 0 30 30" fill="none" xmlns="http://www.w3.org/2000/svg">
<path fill-rule="evenodd" clip-rule="evenodd" d="M22.7782 6.22183C24.8411 8.28473 26 11.0826 26 14V24C26 25.1046 25.1046 26 24 26H20C18.8954 26 18 25.1046 18 24V14C18 13.2044 17.6839 12.4413 17.1213 11.8787C16.5587 11.3161 15.7956 11 15 11C14.2044 11 13.4413 11.3161 12.8787 11.8787C12.3161 12.4413 12 13.2044 12 14V18.101C10.7295 16.8045 8.95869 16 7 16C5.9264 16 4.90926 16.2417 4 16.6736V14C4 11.0826 5.15893 8.28472 7.22183 6.22182C9.28473 4.15892 12.0826 3 15 3C17.9174 3 20.7153 4.15893 22.7782 6.22183ZM20.0761 21.6173C20 21.8011 20 22.0341 20 22.5C20 22.9659 20 23.1989 20.0761 23.3827C20.1776 23.6277 20.3723 23.8224 20.6173 23.9239C20.8011 24 21.0341 24 21.5 24H22.5C22.9659 24 23.1989 24 23.3827 23.9239C23.6277 23.8224 23.8224 23.6277 23.9239 23.3827C24 23.1989 24 22.9659 24 22.5C24 22.0341 24 21.8011 23.9239 21.6173C23.8224 21.3723 23.6277 21.1776 23.3827 21.0761C23.1989 21 22.9659 21 22.5 21H21.5C21.0341 21 20.8011 21 20.6173 21.0761C20.3723 21.1776 20.1776 21.3723 20.0761 21.6173Z" fill="black"/>
<path fill-rule="evenodd" clip-rule="evenodd" d="M13 23C13 26.3137 10.3137 29 7 29C3.68629 29 1 26.3137 1 23C1 19.6863 3.68629 17 7 17C10.3137 17 13 19.6863 13 23ZM7 19C7.27614 19 7.5 19.2239 7.5 19.5V22.25H10.5C10.7761 22.25 11 22.4739 11 22.75C11 23.0261 10.7761 23.25 10.5 23.25H7.5V26.5C7.5 26.7761 7.27614 27 7 27C6.72386 27 6.5 26.7761 6.5 26.5V23.25H3.5C3.22386 23.25 3 23.0261 3 22.75C3 22.4739 3.22386 22.25 3.5 22.25H6.5V19.5C6.5 19.2239 6.72386 19 7 19Z" fill="black"/>
</svg>
