<?xml version="1.0"?>
<svg xmlns="http://www.w3.org/2000/svg" viewBox="0 0 24 24" enable-background="new 0 0 24 24">
    <path d="M 5.03125 2 C 4.68125 2.0375 4.30625 2.1625 3.90625 2.3125 C 3.20625 2.6125 2.7125 3.09375 2.3125 3.59375 C 1.9125 4.09375 1.8875 4.7 2.1875 5.5 L 3.8125 4.8125 C 3.7125 4.5125 3.7125 4.2 3.8125 4 C 3.9125 3.8 4.10625 3.6 4.40625 3.5 C 4.70625 3.4 4.9875 3.4 5.1875 3.5 C 5.4875 3.6 5.7125 3.8875 5.8125 4.1875 C 5.9125 4.4875 6.00625 4.79375 5.90625 5.09375 C 5.90625 5.39375 5.79375 5.7 5.59375 6 C 5.29375 6.5 5.1 6.8875 5 7.1875 C 5 7.4875 4.9875 7.90625 5.1875 8.40625 L 6.8125 7.90625 C 6.7125 7.60625 6.59375 7.29375 6.59375 7.09375 C 6.59375 6.89375 6.70625 6.60625 6.90625 6.40625 C 7.20625 6.00625 7.4 5.5 7.5 5 C 7.6 4.5 7.60625 4 7.40625 3.5 C 7.10625 2.8 6.6 2.29375 6 2.09375 C 5.7 1.99375 5.38125 1.9625 5.03125 2 z M 12 2 C 10.8 2 9.6 2.1875 8.5 2.6875 L 8.5 2.8125 C 8.8 3.3125 8.90625 3.99375 8.90625 4.59375 C 9.90625 4.19375 10.9 4 12 4 C 16.4 4 20 7.6 20 12 C 20 16.4 16.4 20 12 20 C 7.6 20 4 16.4 4 12 C 4 11.5 3.99375 11.09375 4.09375 10.59375 L 3.40625 8.90625 C 3.20625 8.40625 3.0875 7.9 3.1875 7.5 L 3.1875 7.3125 C 2.3875 8.7125 2 10.3 2 12 C 2 17.5 6.5 22 12 22 C 17.5 22 22 17.5 22 12 C 22 6.5 17.5 2 12 2 z M 11 8 C 9.8954305 8 9 8.8954305 9 10 C 9 11.104569 9.8954305 12 11 12 C 12.104569 12 13 11.104569 13 10 C 13 8.8954305 12.104569 8 11 8 z M 17 8 C 15.895431 8 15 8.8954305 15 10 C 15 11.104569 15.895431 12 17 12 C 18.104569 12 19 11.104569 19 10 C 19 8.8954305 18.104569 8 17 8 z M 7.1875 8.6875 L 5.59375 9.3125 L 6.09375 10.6875 L 7.6875 10.09375 L 7.1875 8.6875 z M 15.59375 13 C 10.09375 13 9.1875 18 9.1875 18 C 9.2875 17.9 11.69375 15.90625 15.59375 15.90625 C 16.39375 15.90625 17 15.3 17 14.5 C 17 13.7 16.39375 13 15.59375 13 z"/>
</svg>
