<svg width="512" height="512" viewBox="0 0 512 512" fill="none" xmlns="http://www.w3.org/2000/svg">
<path d="M199.47 307.324C190.534 307.324 183.527 304.858 178.449 299.927C173.42 294.946 170.905 287.988 170.905 279.053V215.112C170.905 206.226 173.518 199.316 178.742 194.385C184.016 189.404 190.925 186.914 199.47 186.914H276.008C284.943 186.914 291.926 189.404 296.955 194.385C302.033 199.316 304.572 206.226 304.572 215.112V279.053C304.572 287.988 302.033 294.946 296.955 299.927C291.926 304.858 284.943 307.324 276.008 307.324H199.47ZM201.521 296.265H273.957C279.963 296.265 284.602 294.702 287.873 291.577C291.145 288.452 292.78 283.716 292.78 277.368V216.87C292.78 210.522 291.145 205.786 287.873 202.661C284.602 199.487 279.963 197.9 273.957 197.9H201.521C195.515 197.9 190.876 199.487 187.604 202.661C184.333 205.786 182.697 210.522 182.697 216.87V277.368C182.697 283.716 184.333 288.452 187.604 291.577C190.876 294.702 195.515 296.265 201.521 296.265ZM302.888 226.611L332.258 201.782C333.723 200.562 335.236 199.585 336.799 198.853C338.361 198.071 339.899 197.681 341.413 197.681C344.636 197.681 347.224 198.755 349.177 200.903C351.13 203.052 352.106 205.835 352.106 209.253V284.985C352.106 288.403 351.13 291.187 349.177 293.335C347.224 295.483 344.636 296.558 341.413 296.558C339.899 296.558 338.361 296.191 336.799 295.459C335.236 294.678 333.723 293.677 332.258 292.456L302.888 267.554V253.711L337.751 282.495C338.093 282.69 338.386 282.886 338.63 283.081C338.923 283.228 339.216 283.301 339.509 283.301C340.339 283.301 340.754 282.739 340.754 281.616V212.622C340.754 211.45 340.339 210.864 339.509 210.864C339.216 210.864 338.923 210.962 338.63 211.157C338.386 211.304 338.093 211.499 337.751 211.743L302.888 240.527V226.611Z" fill="#BEBEC0"/>
</svg>
