<svg width="512" height="512" viewBox="0 0 512 512" fill="none" xmlns="http://www.w3.org/2000/svg">
<path d="M334.309 294.988C334.309 302.02 332.648 307.342 329.328 310.955C326.008 314.617 321.027 316.448 314.387 316.448H191.633C186.164 316.448 182.062 314.764 179.328 311.395C176.594 308.074 175.104 303.094 174.86 296.453L202.766 271.258C204.279 269.842 205.817 268.816 207.38 268.182C208.942 267.498 210.554 267.156 212.214 267.156C213.923 267.156 215.607 267.522 217.268 268.255C218.977 268.938 220.588 269.964 222.102 271.331L235.651 283.562L268.757 253.973C270.466 252.508 272.224 251.409 274.03 250.677C275.837 249.944 277.741 249.578 279.743 249.578C281.745 249.578 283.674 249.969 285.529 250.75C287.434 251.482 289.191 252.605 290.803 254.119L334.309 294.988ZM223.713 254.852C220.539 254.852 217.634 254.095 214.997 252.581C212.409 251.019 210.334 248.919 208.771 246.282C207.209 243.646 206.428 240.74 206.428 237.566C206.428 234.441 207.209 231.561 208.771 228.924C210.334 226.287 212.409 224.188 214.997 222.625C217.634 221.062 220.539 220.281 223.713 220.281C226.887 220.281 229.768 221.062 232.355 222.625C234.943 224.188 237.019 226.287 238.581 228.924C240.144 231.561 240.925 234.441 240.925 237.566C240.925 240.74 240.144 243.646 238.581 246.282C237.019 248.919 234.943 251.019 232.355 252.581C229.768 254.095 226.887 254.852 223.713 254.852ZM192.146 321.575C184.479 321.575 178.718 319.671 174.86 315.862C171.052 312.103 169.147 306.463 169.147 298.943V209.441C169.147 201.873 171.052 196.209 174.86 192.449C178.718 188.641 184.479 186.736 192.146 186.736H318.854C326.569 186.736 332.331 188.641 336.14 192.449C339.948 196.258 341.853 201.922 341.853 209.441V298.943C341.853 306.463 339.948 312.103 336.14 315.862C332.331 319.671 326.569 321.575 318.854 321.575H192.146ZM192.292 309.783H318.708C322.321 309.783 325.104 308.831 327.058 306.927C329.06 304.974 330.061 302.093 330.061 298.284V210.101C330.061 206.292 329.06 203.411 327.058 201.458C325.104 199.505 322.321 198.528 318.708 198.528H192.292C188.63 198.528 185.822 199.505 183.869 201.458C181.916 203.411 180.939 206.292 180.939 210.101V298.284C180.939 302.093 181.916 304.974 183.869 306.927C185.822 308.831 188.63 309.783 192.292 309.783Z" fill="#BEBEC0"/>
</svg>
