<svg width="512" height="512" viewBox="0 0 512 512" fill="none" xmlns="http://www.w3.org/2000/svg">
<path d="M193.757 280.185C192.146 280.185 190.778 279.599 189.655 278.427C188.532 277.255 187.971 275.863 187.971 274.252V252.06C187.971 250.448 188.532 249.057 189.655 247.885C190.778 246.664 192.146 246.054 193.757 246.054C195.466 246.054 196.882 246.664 198.005 247.885C199.177 249.057 199.763 250.448 199.763 252.06V274.252C199.763 275.863 199.177 277.255 198.005 278.427C196.882 279.599 195.466 280.185 193.757 280.185ZM218.439 310.141C216.779 310.141 215.388 309.579 214.265 308.456C213.142 307.284 212.58 305.868 212.58 304.208V222.104C212.58 220.443 213.142 219.027 214.265 217.855C215.388 216.684 216.779 216.098 218.439 216.098C220.148 216.098 221.564 216.684 222.688 217.855C223.811 219.027 224.372 220.443 224.372 222.104V304.208C224.372 305.868 223.811 307.284 222.688 308.456C221.564 309.579 220.148 310.141 218.439 310.141ZM243.049 339.657C241.389 339.657 239.997 339.071 238.874 337.899C237.8 336.776 237.263 335.385 237.263 333.725V192.587C237.263 190.927 237.8 189.535 238.874 188.412C239.997 187.24 241.389 186.654 243.049 186.654C244.758 186.654 246.174 187.24 247.297 188.412C248.469 189.535 249.055 190.927 249.055 192.587V333.725C249.055 335.385 248.469 336.776 247.297 337.899C246.174 339.071 244.758 339.657 243.049 339.657ZM267.731 301.205C266.071 301.205 264.68 300.644 263.557 299.521C262.434 298.397 261.872 297.006 261.872 295.346V230.966C261.872 229.306 262.434 227.914 263.557 226.791C264.68 225.619 266.071 225.033 267.731 225.033C269.392 225.033 270.783 225.619 271.906 226.791C273.078 227.914 273.664 229.306 273.664 230.966V295.346C273.664 297.006 273.078 298.397 271.906 299.521C270.783 300.644 269.392 301.205 267.731 301.205ZM292.414 323.397C290.705 323.397 289.289 322.812 288.166 321.64C287.043 320.517 286.481 319.149 286.481 317.538V208.773C286.481 207.162 287.043 205.771 288.166 204.599C289.289 203.427 290.705 202.841 292.414 202.841C294.074 202.841 295.466 203.427 296.589 204.599C297.712 205.771 298.273 207.162 298.273 208.773V317.538C298.273 319.149 297.712 320.517 296.589 321.64C295.466 322.812 294.074 323.397 292.414 323.397ZM317.023 286.483C315.314 286.483 313.898 285.922 312.775 284.799C311.701 283.627 311.164 282.235 311.164 280.624V245.688C311.164 244.076 311.701 242.685 312.775 241.513C313.898 240.341 315.314 239.755 317.023 239.755C318.684 239.755 320.075 240.341 321.198 241.513C322.37 242.685 322.956 244.076 322.956 245.688V280.624C322.956 282.235 322.37 283.627 321.198 284.799C320.075 285.922 318.684 286.483 317.023 286.483Z" fill="#BEBEC0"/>
</svg>
